<svg xmlns="http://www.w3.org/2000/svg" viewBox="0 0 640 640" width="640" height="640">
  <defs>
    <style>
      .wordmark { font-family: Georgia, "Times New Roman", serif; font-weight: 700; }
      .tagline { font-family: Arial, Tahoma, sans-serif; font-weight: 500; }
    </style>
  </defs>

  <rect width="640" height="640" fill="#f5efe2"/>

  <circle cx="320" cy="230" r="150" fill="#23433a"/>
  <circle cx="320" cy="230" r="150" fill="none" stroke="#a2793f" stroke-width="2"/>

  <line x1="320" y1="140" x2="320" y2="320" stroke="#f5efe2" stroke-width="7" stroke-linecap="round"/>
  <line x1="230" y1="175" x2="410" y2="175" stroke="#f5efe2" stroke-width="7" stroke-linecap="round"/>

  <circle cx="320" cy="175" r="10" fill="#c9a877"/>

  <path d="M 230 175 Q 218 225 230 245 Q 260 260 290 245 Q 302 225 290 175" fill="none" stroke="#f5efe2" stroke-width="6" stroke-linecap="round" stroke-linejoin="round"/>
  <path d="M 410 175 Q 398 225 410 245 Q 440 260 470 245 Q 482 225 470 175" fill="none" stroke="#f5efe2" stroke-width="6" stroke-linecap="round" stroke-linejoin="round"/>

  <line x1="255" y1="245" x2="265" y2="245" stroke="#c9a877" stroke-width="5" stroke-linecap="round"/>
  <line x1="435" y1="245" x2="445" y2="245" stroke="#c9a877" stroke-width="5" stroke-linecap="round"/>

  <path d="M 260 320 L 260 260 L 320 320 L 380 260 L 380 320" fill="none" stroke="#c9a877" stroke-width="9" stroke-linecap="round" stroke-linejoin="round"/>

  <text x="320" y="440" text-anchor="middle" class="wordmark" font-size="56" fill="#23433a">الميزان</text>
  <text x="320" y="480" text-anchor="middle" class="wordmark" font-size="26" fill="#a2793f">السياسي</text>

  <line x1="240" y1="505" x2="400" y2="505" stroke="#cdbf9e" stroke-width="1.5"/>

  <text x="320" y="535" text-anchor="middle" class="tagline" font-size="18" fill="#756c5e">نزن الخبر، لا نطلقه</text>
</svg>
